HIERARCHY
ROOT joint_Root
{
	OFFSET 0.0 0.0 0.0
	CHANNELS 6 Xposition Yposition Zposition Zrotation Xrotation Yrotation 
	JOINT Hips
	{
		OFFSET 4.5925 91.4895 -427.239
		CHANNELS 6 Xposition Yposition Zposition Zrotation Xrotation Yrotation 
		JOINT Spine
		{
			OFFSET 15.7357 0.0 0.0
			CHANNELS 6 Xposition Yposition Zposition Zrotation Xrotation Yrotation 
			JOINT Chest
			{
				OFFSET 8.98455 -0.406207 0.0
				CHANNELS 6 Xposition Yposition Zposition Zrotation Xrotation Yrotation 
				JOINT Neck
				{
					OFFSET 16.3773 0.0 0.0
					CHANNELS 6 Xposition Yposition Zposition Zrotation Xrotation Yrotation 
					JOINT Head
					{
						OFFSET 6.45672 0.0 0.0
						CHANNELS 6 Xposition Yposition Zposition Zrotation Xrotation Yrotation 
						End Site
						{
							OFFSET 0.0 0.0 0.0
						}
					}
				}
				JOINT Shoulder_L
				{
					OFFSET 12.9942 -0.242716 4.98039
					CHANNELS 6 Xposition Yposition Zposition Zrotation Xrotation Yrotation 
					JOINT UpperArm_L
					{
						OFFSET 5.34809 0.0 0.0
						CHANNELS 6 Xposition Yposition Zposition Zrotation Xrotation Yrotation 
						JOINT LowerArm_L
						{
							OFFSET 24.3286 1.87007e-05 0.0
							CHANNELS 6 Xposition Yposition Zposition Zrotation Xrotation Yrotation 
							JOINT Hand_L
							{
								OFFSET 22.2916 0.0 0.0
								CHANNELS 6 Xposition Yposition Zposition Zrotation Xrotation Yrotation 
								End Site
								{
									OFFSET 0.0 0.0 0.0
								}
							}
						}
					}
				}
				JOINT Shoulder_R
				{
					OFFSET 12.9945 -0.242716 -4.98039
					CHANNELS 6 Xposition Yposition Zposition Zrotation Xrotation Yrotation 
					JOINT UpperArm_R
					{
						OFFSET -5.34813 0.0 0.0
						CHANNELS 6 Xposition Yposition Zposition Zrotation Xrotation Yrotation 
						JOINT LowerArm_R
						{
							OFFSET -24.3289 0.000322201 0.0
							CHANNELS 6 Xposition Yposition Zposition Zrotation Xrotation Yrotation 
							JOINT Hand_R
							{
								OFFSET -22.2915 -0.000108084 0.0
								CHANNELS 6 Xposition Yposition Zposition Zrotation Xrotation Yrotation 
								End Site
								{
									OFFSET 0.0 0.0 0.0
								}
							}
						}
					}
				}
			}
		}
		JOINT UpperLeg_L
		{
			OFFSET -2.19248 -6.46944 0.0
			CHANNELS 6 Xposition Yposition Zposition Zrotation Xrotation Yrotation 
			JOINT LowerLeg_L
			{
				OFFSET 39.0811 0.0 -1.23785e-05
				CHANNELS 6 Xposition Yposition Zposition Zrotation Xrotation Yrotation 
				JOINT Foot_L
				{
					OFFSET 40.9854 0.0 -1.26872e-05
					CHANNELS 6 Xposition Yposition Zposition Zrotation Xrotation Yrotation 
					JOINT Toes_L
					{
						OFFSET 11.7543 0.0 0.0
						CHANNELS 6 Xposition Yposition Zposition Zrotation Xrotation Yrotation 
						End Site
						{
							OFFSET 0.0 0.0 0.0
						}
					}
				}
			}
		}
		JOINT UpperLeg_R
		{
			OFFSET -2.19251 6.46944 0.0
			CHANNELS 6 Xposition Yposition Zposition Zrotation Xrotation Yrotation 
			JOINT LowerLeg_R
			{
				OFFSET -39.0811 -0.00228153 -0.0401928
				CHANNELS 6 Xposition Yposition Zposition Zrotation Xrotation Yrotation 
				JOINT Foot_R
				{
					OFFSET -40.9854 0.0 0.0
					CHANNELS 6 Xposition Yposition Zposition Zrotation Xrotation Yrotation 
					JOINT Toes_R
					{
						OFFSET -11.7543 0.0 0.0
						CHANNELS 6 Xposition Yposition Zposition Zrotation Xrotation Yrotation 
						End Site
						{
							OFFSET 0.0 0.0 0.0
						}
					}
				}
			}
		}
	}
}
MOTION
Frames:	6
Frame Time:	0.0333333
0.000000 0.000000 0.000000 0.000000 0.000000 -0.000000 -4.005040 90.646300 22.122700 -86.350900 3.555790 175.144000 15.735700 0.000005 -0.000001 44.790400 84.007700 -44.517900 8.984550 -0.406207 -0.000000 0.709989 -8.519110 0.598285 16.377300 -0.000001 -0.000001 -7.216640 -0.440689 -2.526700 6.456720 -0.000001 -0.000000 -10.910500 2.885310 -3.650710 12.994200 -0.242716 4.980390 -90.189000 0.738416 -75.674300 5.348090 -0.000007 -0.000001 -73.371600 25.249000 -17.366500 24.328600 0.000019 0.000005 35.936700 -12.450400 -106.564000 22.291600 -0.000001 0.000005 4.021700 5.477470 -5.651810 12.994500 -0.242716 -4.980390 88.168100 6.741690 -74.759600 -5.348130 -0.000001 -0.000004 -68.956100 38.306300 9.041660 -24.328900 0.000322 -0.000009 2.882060 -0.746396 -104.510000 -22.291500 -0.000108 -0.000004 13.060500 5.569920 -9.684810 -2.192480 -6.469440 -0.000000 -176.859000 -8.549340 -0.149908 39.081100 -0.000007 -0.000012 0.009327 -0.014650 32.480100 40.985400 -0.000006 -0.000013 8.082270 8.148700 -65.903100 11.754300 -0.000000 0.000003 -0.060631 -0.333833 -30.365700 -2.192510 6.469440 -0.000001 -174.413000 6.651300 154.303000 -39.081100 -0.002282 -0.040193 -0.014488 0.011602 56.766400 -40.985400 0.000008 0.000006 7.180080 -1.031240 -65.954800 -11.754300 -0.000006 -0.000006 -0.017308 -0.151890 -22.774200
0.000000 0.000000 0.000000 0.000000 0.000000 -0.000000 -3.604750 91.911200 16.896800 -86.471900 1.820270 174.064000 15.735700 0.000005 -0.000001 35.581800 83.426100 -35.041500 8.984550 -0.406207 -0.000000 -0.054127 -10.727200 1.077130 16.377300 -0.000001 -0.000001 -7.872050 -0.573961 -2.285990 6.456720 -0.000001 -0.000000 -11.246600 3.793250 -2.281970 12.994200 -0.242716 4.980390 -89.699200 -1.335610 -77.286300 5.348090 -0.000007 -0.000001 -68.123200 33.770300 -24.855900 24.328600 0.000019 0.000005 32.404200 -11.693100 -107.709000 22.291600 -0.000001 0.000005 3.715070 5.488490 -6.080910 12.994500 -0.242716 -4.980390 88.300700 5.875640 -73.837400 -5.348130 -0.000001 -0.000004 -70.915500 36.174200 16.355500 -24.328900 0.000322 -0.000009 1.290960 -0.343555 -104.907000 -22.291500 -0.000108 -0.000004 12.621400 5.570910 -9.734720 -2.192480 -6.469440 -0.000000 -175.107000 -10.949800 1.909040 39.081100 -0.000007 -0.000012 0.012130 -0.021116 29.873200 40.985400 -0.000006 -0.000013 6.782050 13.358600 -57.088200 11.754300 -0.000000 0.000003 -0.110609 -0.470160 -36.255000 -2.192510 6.469440 -0.000001 -172.420000 9.179020 153.188000 -39.081100 -0.002282 -0.040193 -0.012072 0.015894 43.982800 -40.985400 0.000008 0.000006 3.964960 3.659230 -66.236700 -11.754300 -0.000006 -0.000006 -0.018170 -0.156934 -22.981600
0.000000 0.000000 0.000000 0.000000 0.000000 -0.000000 -3.487600 92.100700 11.214600 -87.787600 0.977120 174.460000 15.735700 0.000005 -0.000001 32.719300 82.779000 -32.391300 8.984550 -0.406207 -0.000000 0.091305 -12.169300 0.667190 16.377300 -0.000001 -0.000001 -8.157220 -0.614463 -2.099040 6.456720 -0.000001 -0.000000 -11.359600 4.299060 -0.635666 12.994200 -0.242716 4.980390 -89.238700 -3.806010 -78.673100 5.348090 -0.000007 -0.000001 -61.681200 39.356200 -33.142500 24.328600 0.000019 0.000005 30.709100 -11.584800 -108.680000 22.291600 -0.000001 0.000005 2.272960 5.490550 -6.155240 12.994500 -0.242716 -4.980390 88.620200 4.645810 -73.438400 -5.348130 -0.000001 -0.000004 -71.471900 34.010600 21.116600 -24.328900 0.000322 -0.000009 1.014600 -0.285738 -105.731000 -22.291500 -0.000108 -0.000004 12.468300 5.570820 -9.730540 -2.192480 -6.469440 -0.000000 -174.654000 -11.985800 4.618180 39.081100 -0.000007 -0.000012 0.024862 -0.043811 29.573900 40.985400 -0.000006 -0.000013 3.556050 16.678200 -49.479800 11.754300 -0.000000 0.000003 -0.124189 -0.501007 -37.621500 -2.192510 6.469440 -0.000001 -171.335000 13.182700 153.614000 -39.081100 -0.002282 -0.040193 -0.008458 0.017522 33.847200 -40.985400 0.000008 0.000006 2.592610 6.825830 -66.646500 -11.754300 -0.000006 -0.000006 -0.019073 -0.162098 -23.194100
0.000000 0.000000 0.000000 0.000000 0.000000 -0.000000 -3.560130 91.055500 5.053850 -89.282200 0.785757 176.247000 15.735700 0.000005 -0.000001 34.458200 82.214600 -34.561200 8.984550 -0.406207 -0.000000 1.066530 -12.827400 -0.086640 16.377300 -0.000001 -0.000001 -7.731670 -0.612160 -1.967530 6.456720 -0.000001 -0.000000 -11.153600 4.425040 1.065930 12.994200 -0.242716 4.980390 -88.838900 -6.572580 -79.955400 5.348090 -0.000007 -0.000001 -56.011100 42.154900 -40.700200 24.328600 0.000019 0.000005 30.390200 -11.572800 -108.884000 22.291600 -0.000001 0.000005 2.411380 5.476160 -5.604470 12.994500 -0.242716 -4.980390 88.988600 3.470460 -73.741600 -5.348130 -0.000001 -0.000004 -71.244300 31.846900 24.145600 -24.328900 0.000322 -0.000009 0.470896 -0.146245 -107.292000 -22.291500 -0.000108 -0.000004 12.273100 5.560230 -9.197760 -2.192480 -6.469440 -0.000000 -175.291000 -9.858170 7.668980 39.081100 -0.000007 -0.000012 0.028426 -0.045183 32.174000 40.985400 -0.000006 -0.000013 -0.731273 16.380100 -43.977600 11.754300 -0.000000 0.000003 -0.108656 -0.465555 -36.052200 -2.192510 6.469440 -0.000001 -170.473000 19.213100 154.024000 -39.081100 -0.002282 -0.040193 -0.009758 0.022018 30.670900 -40.985400 0.000008 0.000006 0.278137 9.704150 -67.212000 -11.754300 -0.000006 -0.000006 -0.020522 -0.170162 -23.526300
0.000000 0.000000 0.000000 0.000000 0.000000 -0.000000 -3.421230 88.941800 -1.363440 -89.238600 0.896303 178.026000 15.735700 0.000005 -0.000001 37.813000 81.988700 -37.885100 8.984550 -0.406207 -0.000000 2.099160 -12.645900 0.088179 16.377300 -0.000001 -0.000001 -6.529090 -0.550923 -2.133340 6.456720 -0.000001 -0.000000 -10.551300 4.173450 2.490200 12.994200 -0.242716 4.980390 -88.558100 -8.802700 -80.658700 5.348090 -0.000007 -0.000001 -51.999900 42.969200 -46.275500 24.328600 0.000019 0.000005 28.394600 -10.436300 -108.525000 22.291600 -0.000001 0.000005 2.733940 5.469950 -5.368360 12.994500 -0.242716 -4.980390 89.195100 2.878330 -74.370300 -5.348130 -0.000001 -0.000004 -70.200400 30.257700 25.779300 -24.328900 0.000322 -0.000009 -0.820928 0.293161 -109.606000 -22.291500 -0.000108 -0.000004 12.443000 5.554900 -8.940010 -2.192480 -6.469440 -0.000000 -174.568000 -7.442100 9.082500 39.081100 -0.000007 -0.000012 0.025195 -0.031637 38.532100 40.985400 -0.000006 -0.000013 -6.032840 14.963600 -40.396100 11.754300 -0.000000 0.000003 -0.064293 -0.345495 -30.861300 -2.192510 6.469440 -0.000001 -168.799000 20.048200 152.672000 -39.081100 -0.002282 -0.040193 -0.000504 0.005000 37.156300 -40.985400 0.000008 0.000006 14.808800 4.386600 -64.927700 -11.754300 -0.000006 -0.000006 -0.005687 -0.067970 -19.339100
0.000000 0.000000 0.000000 0.000000 0.000000 -0.000000 -3.258110 85.846400 -7.922430 -89.187900 0.750499 179.802000 15.735700 0.000005 -0.000001 40.994000 81.992800 -41.027200 8.984550 -0.406207 -0.000000 2.791410 -12.074800 0.228718 16.377300 -0.000001 -0.000001 -5.201890 -0.501878 -2.336090 6.456720 -0.000001 -0.000000 -8.993380 3.786150 3.195150 12.994200 -0.242716 4.980390 -88.337000 -9.740480 -80.262200 5.348090 -0.000007 -0.000001 -49.613700 43.052800 -49.770500 24.328600 0.000019 0.000005 27.206700 -9.176730 -107.236000 22.291600 -0.000001 0.000005 2.305400 5.466920 -5.255200 12.994500 -0.242716 -4.980390 89.108800 3.243460 -74.628000 -5.348130 -0.000001 -0.000004 -68.012600 29.841800 25.612100 -24.328900 0.000322 -0.000009 -2.395120 0.995653 -112.547000 -22.291500 -0.000108 -0.000004 13.040000 5.557200 -9.049590 -2.192480 -6.469440 -0.000000 -173.607000 -5.490760 8.455450 39.081100 -0.000007 -0.000012 0.038228 -0.034147 48.225200 40.985400 -0.000006 -0.000013 -12.752300 12.038400 -37.166000 11.754300 -0.000000 0.000003 -0.007827 -0.086628 -20.104200 -2.192510 6.469440 -0.000001 -170.731000 14.522300 153.535000 -39.081100 -0.002282 -0.040193 0.050354 -0.039754 49.837900 -40.985400 0.000008 0.000006 14.379600 -3.586870 -75.676300 -11.754300 -0.000006 -0.000006 -0.000807 -0.012624 -17.086600
